<?xml version="1.0" encoding="utf-8"?>
<!-- Generator: Adobe Illustrator 25.0.0, SVG Export Plug-In . SVG Version: 6.00 Build 0)  -->
<svg version="1.1" id="OAO" xmlns="http://www.w3.org/2000/svg" xmlns:xlink="http://www.w3.org/1999/xlink"
	 x="0px" y="0px" viewBox="0 0 512 512" style="enable-background:new 0 0 512 512;" xml:space="preserve">
<style type="text/css">
	.st0{fill:#FFFCF2;stroke:#000000;stroke-width:5;stroke-miterlimit:10;}
</style>
<g>
	<path class="st0" d="M477.1,160.3l-222.2-95l-220.1,95L6,172.8l31.7,13.7l1.2,0.4l219,94.6l168.6-73.9l-7.7-1.3l-149.9-25.4
		c-3.5,2.5-7.9,4-12.8,4c-11.2,0-20.3-8-20.3-17.8c0-9.9,9.1-17.8,20.3-17.8c9.7,0,17.8,6,19.8,14l175.2,31.6l3.1,0.6l20.2-8.9
		l31.6-13.9L477.1,160.3z"/>
	<path class="st0" d="M252.5,446.3h3.6h0.3h3.8h0.1h0.8c0-1.2,0.1-2.6,0.1-4c3.5-12.6,18.4-50.3,73.3-53.5c2.6-0.2,5.3-0.5,7.9-1
		c11.6-2.3,43.4-10.1,61-28.2c7.5-7.6,11.3-18.1,11.3-28.8l0.2-95.2l0,0l0,0v-0.4l-1,0.4l-0.1,0.5l-157.5,68.2L98.9,236.1v-0.3
		l-1-0.4v0.2h-0.1l0.1,0.7l0.2,94.8c0,10.7,3.8,21.2,11.3,28.8c17.6,18.1,49.4,25.9,61,28.2c2.6,0.5,5.3,0.8,7.9,1
		c53.6,3.2,69.1,39.2,73,52.6c0.1,1.7,0.2,3.2,0.2,4.7h1"/>
</g>
</svg>
