<?xml version="1.0" encoding="utf-8"?>
<!-- Generator: Adobe Illustrator 25.0.0, SVG Export Plug-In . SVG Version: 6.00 Build 0)  -->
<svg version="1.1" id="圖層_1" xmlns="http://www.w3.org/2000/svg" xmlns:xlink="http://www.w3.org/1999/xlink" x="0px" y="0px"
	 viewBox="0 0 512 512" style="enable-background:new 0 0 512 512;" xml:space="preserve">
<style type="text/css">
	.st0{fill:#FFFCF2;}
</style>
<g>
	<path class="st0" d="M418.8,206.4L268.9,181c-3.5,2.5-7.9,4-12.8,4c-11.2,0-20.3-8-20.3-17.8c0-9.9,9.1-17.8,20.3-17.8
		c9.7,0,17.8,6,19.8,14L451.1,195l23.3-8.3l31.6-13.9l-28.9-12.4l-222.2-95L34.8,160.4L6,172.9l31.7,13.7L258,263.4L418.8,206.4z"/>
	<path class="st0" d="M256.3,304.4L97.7,235.7l14.8,85.5c5.8,47.7,62.3,52.1,62.3,52.1c68.2,7.4,76.4,52.8,76.6,73.1h4.7l0,0h0.3h0
		l0,0h4.7c0.2-20.4,8.4-65.8,76.6-73.1c0,0,56.5-4.4,62.3-52.1l14.9-85.5L256.3,304.4z"/>
	<g>
		<polygon class="st0" points="258,263.4 37.7,186.5 257.9,281.6 426.5,207.7 418.8,206.4 		"/>
		<polygon class="st0" points="451.1,195 454.2,195.6 474.4,186.7 		"/>
	</g>
	<g>
		<path class="st0" d="M175.9,373.5c0,0-56.5-4.4-62.3-52.1L98.8,236l-1-0.4l0.2,95.6c0,10.7,3.8,21.2,11.3,28.8
			c17.6,18.1,49.4,25.9,61,28.2c2.6,0.5,5.3,0.8,7.9,1c66,3.9,74.2,57.6,74.2,57.6h0.1C252.3,426.3,244.1,380.9,175.9,373.5z"/>
		<path class="st0" d="M336.7,373.3c0,0,56.5-4.4,62.3-52.1l14.9-85.5l1-0.4l-0.2,95.6c0,10.7-3.8,21.2-11.3,28.8
			c-17.6,18.1-49.4,25.9-61,28.2c-2.6,0.5-5.3,0.8-7.9,1c-66,3.9-74.2,57.6-74.2,57.6h-0.1C260.3,426.1,268.5,380.7,336.7,373.3z"/>
	</g>
</g>
</svg>
